<?xml version="1.0" standalone="no"?>
<!DOCTYPE svg PUBLIC "-//W3C//DTD SVG 20010904//EN"
 "http://www.w3.org/TR/2001/REC-SVG-20010904/DTD/svg10.dtd">
<svg version="1.0" xmlns="http://www.w3.org/2000/svg"
 width="400.000000pt" height="400.000000pt" viewBox="0 0 400.000000 400.000000"
 preserveAspectRatio="xMidYMid meet">
<metadata>
Created by potrace 1.14, written by Peter Selinger 2001-2017
</metadata>
<g transform="translate(0.000000,400.000000) scale(0.100000,-0.100000)"
fill="#000000" stroke="none">
<path d="M320 1995 l0 -1795 435 0 435 0 2 791 3 791 505 -663 c278 -364 549
-720 603 -791 l98 -128 536 0 535 0 -34 43 c-19 23 -122 155 -230 292 -108
138 -417 531 -687 874 l-491 623 29 37 c15 20 226 286 467 592 770 976 869
1102 877 1115 7 12 -75 14 -505 14 l-513 -1 -134 -177 c-576 -759 -1026 -1350
-1042 -1367 -19 -19 -19 -3 -19 763 l0 782 -435 0 -435 0 0 -1795z"/>
</g>
</svg>
